<?xml version="1.0" standalone="no"?>
<!DOCTYPE svg PUBLIC "-//W3C//DTD SVG 20010904//EN"
 "http://www.w3.org/TR/2001/REC-SVG-20010904/DTD/svg10.dtd">
<svg version="1.0" xmlns="http://www.w3.org/2000/svg"
 width="200.000000pt" height="200.000000pt" viewBox="0 0 200.000000 200.000000"
 preserveAspectRatio="xMidYMid meet">

<g transform="translate(0.000000,200.000000) scale(0.100000,-0.100000)"
fill="#ffffff" stroke="none">
<path d="M1029 1892 c-70 -45 -791 -552 -818 -576 -33 -29 -61 -93 -61 -141 0
-78 30 -116 320 -391 274 -261 275 -262 278 -307 l3 -45 -50 -7 c-105 -14
-154 -76 -149 -187 4 -76 23 -110 79 -143 32 -19 52 -20 369 -20 317 0 337 1
369 20 56 33 75 67 79 143 5 110 -44 173 -147 187 l-49 7 -4 106 c-5 122 -20
162 -85 223 -37 35 -567 474 -670 556 l-53 41 325 229 c222 155 335 229 356
231 50 5 85 -39 68 -85 -4 -12 -125 -110 -269 -218 -144 -108 -264 -203 -267
-211 -10 -27 14 -64 42 -64 22 0 155 93 361 251 7 6 54 -45 133 -142 116 -144
121 -151 106 -172 -8 -12 -15 -42 -15 -68 0 -41 7 -57 53 -120 63 -87 76 -97
111 -81 39 17 33 52 -19 123 -25 34 -45 69 -45 79 0 20 223 190 250 190 8 0
39 -31 68 -70 53 -71 82 -86 110 -58 23 23 12 61 -39 130 -60 81 -94 101 -157
96 l-45 -3 -162 245 c-178 270 -187 280 -282 280 -37 0 -60 -7 -94 -28z m353
-397 l106 -164 -48 -35 -49 -35 -44 52 c-40 48 -168 206 -190 235 -7 9 -4 18
14 30 13 9 40 31 59 49 19 18 37 32 40 32 3 0 53 -73 112 -164z m-717 -449
c146 -120 265 -222 265 -226 0 -4 -11 -11 -25 -14 -35 -9 -103 -72 -126 -118
l-20 -39 -117 109 c-64 60 -179 170 -255 243 -127 124 -137 137 -137 170 0 65
66 116 128 100 12 -4 141 -105 287 -225z m416 -349 c53 -35 69 -78 69 -179 l0
-88 -150 0 -150 0 0 88 c0 101 16 144 69 179 23 16 49 23 81 23 32 0 58 -7 81
-23z m257 -389 c7 -7 12 -33 12 -58 0 -25 -5 -51 -12 -58 -17 -17 -659 -17
-676 0 -16 16 -16 100 0 116 17 17 659 17 676 0z"/>
<path d="M962 608 c-15 -15 -15 -51 0 -66 7 -7 24 -12 38 -12 31 0 50 17 50
45 0 28 -19 45 -50 45 -14 0 -31 -5 -38 -12z"/>
</g>
</svg>
