<?xml version="1.0" standalone="no"?>
<!DOCTYPE svg PUBLIC "-//W3C//DTD SVG 20010904//EN"
 "http://www.w3.org/TR/2001/REC-SVG-20010904/DTD/svg10.dtd">
<svg version="1.0" xmlns="http://www.w3.org/2000/svg"
 width="512.000000pt" height="512.000000pt" viewBox="0 0 512.000000 512.000000"
 preserveAspectRatio="xMidYMid meet">

<g transform="translate(0.000000,512.000000) scale(0.100000,-0.100000)"
fill="#000000" stroke="none">
<path d="M2686 5105 c-138 -35 -281 -145 -344 -263 -94 -178 -88 -387 17 -549
l40 -62 -57 -11 c-119 -22 -292 -85 -434 -156 -81 -40 -155 -82 -165 -93 -18
-18 -22 -17 -225 63 -114 45 -209 84 -212 87 -3 3 7 36 23 75 140 334 -51 714
-405 804 -369 95 -733 -185 -737 -565 -1 -108 14 -176 60 -273 41 -86 143
-200 218 -243 36 -20 60 -44 85 -86 20 -32 54 -70 80 -88 25 -18 285 -132 579
-255 600 -250 605 -251 716 -210 33 12 80 24 105 27 25 3 117 37 209 79 91 41
168 74 171 74 9 0 45 -126 59 -204 16 -86 13 -281 -4 -372 -26 -136 -52 -201
-93 -231 -172 -127 -286 -275 -347 -451 -14 -39 -45 -171 -70 -294 -36 -175
-43 -228 -36 -251 9 -23 6 -35 -12 -63 -12 -19 -31 -37 -42 -39 -11 -3 -312
-62 -670 -131 -470 -91 -664 -133 -701 -150 -58 -27 -132 -101 -163 -161 -119
-234 55 -516 319 -518 38 0 158 18 290 44 201 40 228 48 252 72 35 34 37 84 7
123 -40 50 -52 50 -311 0 -210 -41 -245 -45 -278 -35 -82 24 -134 115 -111
193 14 46 52 92 88 106 16 6 134 31 263 56 779 149 1127 219 1146 231 11 7 38
41 60 74 21 33 42 61 46 61 4 0 261 -143 275 -154 1 -1 -35 -58 -80 -126 -50
-76 -94 -131 -113 -142 -17 -10 -75 -27 -130 -38 -117 -24 -144 -45 -144 -111
0 -31 7 -47 29 -70 35 -34 49 -35 174 -10 183 37 227 71 364 280 52 79 105
153 119 163 13 11 65 89 115 174 67 113 96 154 107 149 8 -3 108 -62 223 -131
114 -68 224 -131 244 -139 19 -9 35 -21 35 -28 -1 -6 -207 -173 -459 -369
-486 -379 -505 -396 -536 -502 -87 -292 213 -560 486 -434 51 24 1216 924
1302 1007 21 20 52 65 70 101 28 57 32 74 32 150 0 131 -26 176 -217 381 -103
110 -157 175 -161 195 -3 17 -84 127 -192 264 -103 129 -196 247 -207 263
l-19 27 72 248 c39 136 76 261 81 279 5 20 17 34 31 38 12 3 282 117 601 253
498 213 585 253 627 290 162 144 129 401 -65 499 -66 34 -156 41 -222 19 -27
-9 -247 -97 -489 -196 l-440 -180 -75 83 c-159 175 -273 285 -344 331 l-73 48
66 67 c75 75 124 159 146 252 64 271 -81 541 -341 636 -88 31 -222 39 -308 18z
m258 -214 c74 -32 129 -82 167 -153 32 -58 34 -69 34 -153 0 -76 -4 -99 -26
-146 -34 -73 -96 -134 -168 -167 -83 -39 -192 -38 -278 2 -169 77 -245 277
-170 441 45 96 123 165 217 192 62 18 165 11 224 -16z m-1990 -115 c197 -97
275 -319 182 -522 -14 -30 -29 -54 -34 -54 -5 0 -53 19 -108 42 -89 38 -107
42 -184 42 -73 1 -92 -3 -136 -26 -47 -25 -109 -82 -132 -124 -10 -18 -13 -17
-47 16 -47 45 -93 139 -105 215 -26 162 61 335 209 409 72 37 114 46 203 42
66 -2 89 -8 152 -40z m349 -872 c260 -102 477 -188 483 -191 8 -3 82 -150 112
-223 4 -9 -44 -30 -71 -30 -36 -1 -1066 432 -1093 459 -18 17 -24 35 -24 65 0
64 37 104 98 105 13 1 235 -83 495 -185z m1447 135 c200 -25 326 -91 487 -256
l113 -115 -39 -47 c-21 -25 -66 -75 -98 -111 l-60 -65 -57 45 c-31 25 -70 56
-87 69 -45 36 -104 33 -141 -8 -30 -34 -35 -65 -16 -106 10 -22 461 -393 513
-422 16 -9 11 -32 -53 -252 -39 -134 -72 -244 -74 -246 -3 -3 -608 144 -615
150 -2 1 9 46 24 101 25 91 27 115 27 299 1 176 -2 211 -22 289 -31 125 -89
266 -122 300 -42 43 -74 38 -255 -43 -88 -39 -166 -70 -173 -69 -16 4 -154
296 -146 309 9 16 134 75 224 107 198 69 392 94 570 71z m1931 -195 c42 -21
64 -75 49 -119 -6 -18 -18 -39 -28 -48 -9 -8 -270 -123 -578 -256 -412 -177
-572 -241 -600 -241 -33 0 -53 11 -126 69 l-88 68 51 59 c29 32 67 76 86 97
l35 39 21 -20 c35 -31 67 -44 96 -38 14 3 247 95 516 205 270 110 500 200 513
201 13 0 37 -7 53 -16z m-1429 -1542 c30 -30 348 -439 347 -447 0 -11 -279
-257 -298 -263 -15 -5 -421 241 -452 275 -15 15 -50 74 -78 130 -54 109 -77
133 -129 133 -73 0 -112 -58 -93 -136 11 -44 51 -129 87 -185 17 -26 16 -28
-49 -140 -37 -63 -71 -120 -76 -128 -7 -11 -47 7 -195 90 -126 70 -186 109
-186 121 0 36 69 346 89 399 44 117 144 247 243 319 l38 28 371 -93 c204 -51
375 -97 381 -103z m688 -864 c76 -85 91 -123 71 -189 -6 -21 -22 -50 -34 -63
-12 -14 -293 -236 -625 -495 -401 -313 -616 -474 -641 -482 -101 -30 -201 46
-201 151 0 56 20 90 82 143 29 24 251 198 493 387 242 188 450 353 463 367 38
41 30 91 -23 154 -25 29 -45 56 -45 60 0 3 53 53 117 109 l118 102 78 -83 c43
-46 109 -119 147 -161z"/>
<path d="M1498 937 c-57 -53 -39 -137 34 -165 96 -37 172 86 99 159 -38 38
-96 40 -133 6z"/>
</g>
</svg>
