<?xml version="1.0" standalone="no"?>
<!DOCTYPE svg PUBLIC "-//W3C//DTD SVG 20010904//EN"
 "http://www.w3.org/TR/2001/REC-SVG-20010904/DTD/svg10.dtd">
<svg version="1.0" xmlns="http://www.w3.org/2000/svg"
 width="512.000000pt" height="512.000000pt" viewBox="0 0 512.000000 512.000000"
 preserveAspectRatio="xMidYMid meet">

<g transform="translate(0.000000,512.000000) scale(0.100000,-0.100000)"
fill="#ffffff" stroke="none">
<path d="M2902 4206 c-63 -21 -108 -55 -147 -111 -32 -47 -56 -137 -385 -1459
-208 -838 -350 -1428 -350 -1456 0 -139 102 -253 248 -276 91 -14 202 38 259
123 30 43 66 181 384 1458 324 1302 350 1415 346 1477 -7 105 -63 185 -160
228 -62 28 -140 34 -195 16z"/>
<path d="M1246 3675 c-21 -7 -57 -28 -80 -47 -138 -111 -1092 -956 -1115 -989
-37 -51 -55 -126 -47 -192 15 -108 17 -111 620 -639 349 -305 578 -499 606
-512 67 -31 169 -28 236 7 155 79 202 278 98 414 -14 18 -211 196 -437 395
-227 198 -413 364 -415 368 -1 4 190 176 425 382 489 428 478 416 478 553 0
62 -5 89 -22 121 -66 125 -217 186 -347 139z"/>
<path d="M3665 3667 c-60 -29 -109 -76 -138 -131 -17 -32 -22 -59 -22 -121 0
-137 -11 -125 478 -553 235 -206 426 -378 425 -382 -2 -4 -188 -170 -415 -368
-226 -199 -423 -377 -437 -395 -104 -136 -57 -335 98 -414 67 -35 169 -38 236
-7 28 13 257 207 606 512 607 532 607 532 620 644 8 72 -15 151 -59 203 -48
56 -1099 975 -1149 1004 -62 37 -175 41 -243 8z"/>
</g>
</svg>
