<?xml version="1.0" standalone="no"?>
<!DOCTYPE svg PUBLIC "-//W3C//DTD SVG 20010904//EN"
 "http://www.w3.org/TR/2001/REC-SVG-20010904/DTD/svg10.dtd">
<svg version="1.0" xmlns="http://www.w3.org/2000/svg"
 width="512.000000pt" height="512.000000pt" viewBox="0 0 512.000000 512.000000"
 preserveAspectRatio="xMidYMid meet">

<g transform="translate(0.000000,512.000000) scale(0.100000,-0.100000)"
fill="#ffffff" stroke="none">
<path d="M3451 4784 c-158 -42 -287 -182 -323 -347 -14 -65 -5 -188 18 -249
43 -114 147 -221 261 -267 37 -15 87 -25 138 -28 148 -10 270 40 369 148 132
146 154 362 55 536 -33 57 -122 144 -178 172 -98 51 -232 64 -340 35z"/>
<path d="M2752 4100 c-96 -20 -151 -60 -730 -529 -449 -364 -590 -483 -612
-519 -32 -51 -53 -133 -48 -183 3 -28 -1 -32 -35 -44 -101 -35 -145 -141 -97
-234 25 -50 63 -80 112 -87 21 -4 38 -7 38 -9 0 -1 -16 -37 -35 -81 -30 -68
-37 -79 -57 -76 -13 1 -61 9 -107 17 -422 74 -862 -151 -1064 -543 -230 -446
-109 -977 291 -1285 168 -129 349 -194 569 -204 241 -11 426 40 628 172 79 52
221 194 274 275 112 172 160 324 168 523 6 153 -3 230 -44 362 -64 205 -211
403 -388 526 -33 23 -62 43 -64 45 -2 2 22 65 54 140 l58 136 96 -4 96 -4 300
-123 c165 -68 303 -126 307 -129 4 -4 -70 -133 -164 -287 -94 -153 -177 -297
-185 -320 -25 -67 -20 -161 11 -227 73 -154 248 -214 402 -138 35 17 76 46 91
65 15 18 86 130 158 247 71 117 141 232 156 255 l26 42 84 -50 c119 -72 116
-67 91 -131 -39 -98 -53 -172 -59 -305 -9 -196 18 -334 96 -493 57 -117 108
-188 201 -280 158 -159 345 -255 563 -290 103 -17 318 -7 412 18 645 175 961
877 658 1464 -177 344 -508 545 -923 561 l-64 2 -73 360 c-39 198 -72 364 -73
368 0 4 17 15 38 23 96 40 145 110 145 205 -1 120 -91 212 -208 212 -39 0
-111 -23 -330 -105 -154 -58 -282 -104 -284 -101 -3 2 -10 45 -16 96 -11 83
-10 97 7 147 29 81 22 214 -14 293 -37 78 -120 160 -204 199 -73 34 -171 45
-252 28z m83 -1096 c8 -57 55 -125 107 -154 34 -20 56 -25 108 -24 57 1 97 14
315 97 138 52 253 92 256 89 7 -8 139 -659 139 -683 0 -10 -24 -25 -69 -43
-100 -39 -236 -133 -327 -225 l-79 -80 -75 46 c-41 24 -85 51 -97 59 l-22 14
49 82 c56 92 70 131 70 203 0 105 -49 196 -131 248 -28 17 -175 82 -326 143
l-275 111 168 137 169 137 7 -58 c4 -32 10 -77 13 -99z m-1687 -903 c23 -5 45
-11 49 -14 3 -4 -41 -116 -99 -249 l-104 -243 -44 -16 c-59 -22 -128 -83 -151
-133 -43 -95 -11 -229 69 -296 99 -82 257 -70 341 26 l30 34 272 0 271 0 -7
-37 c-4 -21 -20 -72 -36 -113 -138 -358 -538 -559 -912 -459 -329 88 -566 397
-567 737 -1 426 337 769 760 771 47 0 104 -4 128 -8z m3177 -26 c247 -81 443
-284 510 -530 24 -90 30 -265 12 -352 -33 -155 -97 -272 -212 -389 -128 -130
-272 -200 -454 -223 -378 -48 -744 208 -836 584 -25 100 -23 267 4 369 12 44
23 82 26 84 3 3 108 -57 234 -133 219 -133 230 -141 236 -175 27 -145 159
-240 295 -212 114 24 191 113 198 228 7 106 -22 157 -140 249 -23 18 -30 43
-72 255 -26 129 -50 246 -53 259 l-6 24 89 -6 c53 -4 122 -17 169 -32z m-461
-247 c24 -120 42 -218 40 -218 -7 0 -361 215 -374 227 -13 13 -9 20 35 60 85
78 244 175 252 154 2 -3 23 -104 47 -223z m-2306 68 c52 -49 120 -142 155
-211 25 -51 67 -176 67 -201 0 -12 -46 -14 -269 -14 -149 0 -272 4 -275 9 -3
5 42 122 101 260 l106 251 36 -26 c20 -15 56 -45 79 -68z"/>
</g>
</svg>
